HIERARCHY
ROOT Hips
{
	OFFSET 0.00000 0.00000 0.00000
	CHANNELS 6 Xposition Yposition Zposition Yrotation Zrotation Xrotation 
	JOINT Lumbar
	{
		OFFSET 0 0 0
		CHANNELS 3 Zrotation Xrotation Yrotation
		JOINT Neck
		{
			OFFSET 0.00 0.2701 0.00
			CHANNELS 3 Zrotation Xrotation Yrotation
			End Site
			{
				OFFSET 0.00 0.1379 0.00
			}
		}
		JOINT RightShoulder
		{
			OFFSET 0.0119 0.2289 0.1181
			CHANNELS 3 Zrotation Xrotation Yrotation
			JOINT RightElbow
			{
				OFFSET 0.00 -0.1475 0.00
				CHANNELS 2 Zrotation Yrotation
				JOINT RightWrist
				{
					OFFSET 0.00 -0.1605 0.00
					CHANNELS 2 Zrotation Xrotation
					End Site
					{
						OFFSET 0.0040 -0.1068 0.0006
					}
				}
			}
		}
		JOINT LeftShoulder
		{
			OFFSET 0.0119 0.2289 -0.1181
			CHANNELS 3 Zrotation Xrotation Yrotation
			JOINT LeftElbow
			{
				OFFSET 0.00 -0.1475 0.00
				CHANNELS 2 Zrotation Yrotation
				JOINT LeftWrist
				{
					OFFSET 0.00 -0.1605 0.00
					CHANNELS 2 Zrotation Xrotation
					End Site
					{
						OFFSET 0.0040 -0.1068 -0.0006
					}
				}
			}
		}
	}
	JOINT RightHip
	{
		OFFSET 0.0316 -0.0424 0.0458
		CHANNELS 3 Zrotation Xrotation Yrotation
		JOINT RightKnee
		{
			OFFSET 0.00 -0.2438 0.00
			CHANNELS 1 Zrotation
			JOINT RightAnkle
			{
				OFFSET 0.00 -0.2449 0.00
				CHANNELS 3 Zrotation Xrotation Yrotation
				End Site
				{
					OFFSET 0.1237 -0.0542 0.0051
				}
			}
		}
	}
	JOINT LeftHip
	{
		OFFSET 0.0316 -0.0424 -0.0458
		CHANNELS 3 Zrotation Xrotation Yrotation
		JOINT LeftKnee
		{
			OFFSET 0.00 -0.2438 0.00
			CHANNELS 1 Zrotation
			JOINT LeftAnkle
			{
				OFFSET 0.00 -0.2449 0.00
				CHANNELS 3 Zrotation Xrotation Yrotation
				End Site
				{
					OFFSET 0.1237 -0.0542 -0.0051
				}
			}
		}
	}
}
MOTION
Frames: 30
Frame Time: 0.02
0.0975 -4e-05 0.05729 -191.61055 -34.64581 -3.26223 38.17187 3.42163 -0.52197 -6.3397 7.33604 -0.83013 8.27903 -5.82553 48.49941 128.81891 66.74456 21.72769 -4.18673 -4.77205 30.52687 -16.93104 53.49916 -91.97762 6.83276 -0.22906 42.40172 -5.11118 -8.06104 -25.15407 -6.92462 -3.1837 -2.31546 45.07391 4.07222 -1.98722 -28.67454 -7.12406 4.00454 2.78548
0.09969 1e-05 0.05494 -191.41289 -34.6994 -3.10101 37.76653 3.48931 -0.43026 -6.55238 7.66478 -0.83015 7.90107 -5.03814 49.41969 129.38548 67.71685 21.83262 -4.27559 -5.58875 30.15571 -16.92633 52.30956 -92.491 7.13723 -0.30368 42.59436 -4.93968 -7.9839 -25.09502 -6.92008 -3.20567 -2.32805 45.38424 4.22185 -2.01654 -28.70262 -7.16088 3.99038 2.77418
0.10201 1e-05 0.05253 -191.15024 -34.74412 -2.91704 37.34077 3.5634 -0.30762 -6.89804 7.93653 -0.83017 7.30776 -4.51694 49.92869 129.62981 68.97658 21.85018 -4.47654 -6.43522 29.69895 -16.86921 51.28949 -93.11273 7.59365 -0.36427 42.79312 -4.74472 -7.73957 -25.04433 -6.92185 -3.25828 -2.35583 45.72652 4.43596 -1.75388 -28.75038 -7.18631 3.93891 2.73937
0.10428 4e-05 0.05014 -190.90979 -34.78702 -2.74413 36.91917 3.63602 -0.20145 -7.18359 8.23178 -0.83019 6.82381 -3.8852 50.61835 130.00634 70.07841 21.90753 -4.61511 -7.26941 29.28158 -16.83189 50.20904 -93.68117 7.97611 -0.43023 42.98271 -4.56059 -7.57973 -24.99143 -6.92061 -3.29644 -2.37651 46.05167 4.62499 -1.6145 -28.79247 -7.21686 3.90183 2.71394
0.10654 8e-05 0.04778 -190.70011 -34.85591 -2.56884 36.51676 3.70278 -0.08771 -7.47134 8.5334 -0.83022 6.2955 -3.19454 51.32686 130.40593 71.34001 21.95791 -4.79024 -8.11182 28.85663 -16.80036 49.06482 -94.27436 8.38294 -0.50175 43.20222 -4.37398 -7.38298 -24.93287 -6.9201 -3.33681 -2.39814 46.39013 4.79644 -1.51968 -28.81996 -7.24742 3.87587 2.69412
0.10886 7e-05 0.04534 -190.41084 -34.86899 -2.39305 36.07154 3.78306 0.01885 -7.78336 8.8095 -0.83023 5.80689 -2.69529 51.9009 130.69475 72.32119 22.00427 -4.92121 -8.93756 28.4303 -16.74956 48.09066 -94.83857 8.77394 -0.55783 43.36089 -4.18782 -7.22561 -24.88802 -6.91945 -3.3797 -2.42127 46.70893 5.01939 -1.26319 -28.88322 -7.27545 3.81792 2.65711
0.11131 -1e-05 0.0427 -189.91971 -34.71851 -2.21899 35.50003 3.90053 0.09512 -8.14661 9.03093 -0.83025 5.48026 -2.66301 52.20904 130.7617 72.44163 22.06481 -4.89177 -9.72772 28.00817 -16.64616 47.55112 -95.29887 9.08053 -0.57496 43.33542 -4.00614 -7.19404 -24.875 -6.91775 -3.42418 -2.44603 46.94844 5.37288 -0.60219 -29.03535 -7.29778 3.67874 2.57689
0.11382 -0.00013 0.03999 -189.35055 -34.51389 -2.04557 34.88891 4.03109 0.16393 -8.52629 9.22878 -0.83027 5.20076 -2.81577 52.39605 130.73246 72.26617 22.12449 -4.81734 -10.49508 27.59066 -16.52854 47.17493 -95.72461 9.36583 -0.57682 43.25048 -3.82625 -7.21133 -24.87604 -6.91553 -3.46985 -2.47159 47.16938 5.77527 0.20729 -29.22361 -7.31822 3.50895 2.48042
0.11631 -0.00024 0.0373 -188.81566 -34.3415 -1.87333 34.30446 4.15475 0.23842 -8.8872 9.43691 -0.83028 4.89894 -2.88352 52.63683 130.7495 72.23035 22.18313 -4.7726 -11.25957 27.18009 -16.42734 46.71864 -96.16358 9.66282 -0.5853 43.20197 -3.64762 -7.22278 -24.8731 -6.9129 -3.51348 -2.49591 47.40996 6.15253 0.93008 -29.39895 -7.34051 3.3544 2.39233
0.1188 -0.00033 0.03464 -188.28292 -34.13714 -1.69402 33.68204 4.28276 0.30441 -9.30053 9.6452 -0.8303 4.59233 -2.96373 52.86951 130.74465 72.18436 22.24501 -4.69363 -12.08117 26.72816 -16.28357 46.29257 -96.61746 9.95744 -0.59462 43.11471 -3.46009 -7.16271 -24.86035 -6.9131 -3.56411 -2.52427 47.6058 6.54414 1.74275 -29.56093 -7.35826 3.19289 2.29922
0.12128 -0.00048 0.0319 -187.7288 -33.98599 -1.53 33.13038 4.40458 0.38578 -9.60682 9.84783 -0.83032 4.31114 -3.05903 53.09442 130.76579 72.08441 22.30061 -4.67248 -12.77796 26.36479 -16.22395 45.8408 -97.02995 10.24897 -0.5988 43.09309 -3.29095 -7.26115 -24.87118 -6.90736 -3.60053 -2.54446 47.88827 6.91685 2.40131 -29.75816 -7.38508 3.03914 2.21299
0.12375 -0.00082 0.02895 -187.12852 -34.00027 -1.40695 32.77742 4.50737 0.51265 -9.61309 10.04485 -0.83033 4.07694 -3.14594 53.34065 130.89493 71.91307 22.34394 -4.834 -13.13481 26.24386 -16.41695 45.27181 -97.34152 10.54463 -0.59206 43.27437 -3.18031 -7.82316 -24.94435 -6.88387 -3.59313 -2.53955 48.42856 7.22273 2.58228 -30.05118 -7.43814 2.91415 2.15028
0.12619 -0.00123 0.02593 -186.511 -34.06896 -1.29955 32.49853 4.60319 0.65481 -9.51065 10.23634 -0.83034 3.86998 -3.24121 53.58288 131.05298 71.69532 22.3805 -5.0526 -13.36671 26.21255 -16.69246 44.6719 -97.611 10.83568 -0.58081 43.52225 -3.08695 -8.53723 -25.04054 -6.85464 -3.57197 -2.52671 49.05357 7.50776 2.60392 -30.37669 -7.50029 2.79832 2.09513
0.12861 -0.00161 0.02295 -185.90569 -34.10937 -1.18588 32.18984 4.70139 0.7891 -9.45737 10.42804 -0.83035 3.65918 -3.33452 53.82043 131.19116 71.49351 22.41746 -5.23656 -13.65632 26.14124 -16.91925 44.08902 -97.89614 11.12326 -0.57203 43.7351 -2.98021 -9.15714 -25.12581 -6.82895 -3.55985 -2.51902 49.63076 7.80414 2.70811 -30.6828 -7.55787 2.67849 2.03621
0.13114 -0.002 0.01995 -185.2788 -34.16307 -1.06881 31.86274 4.80348 0.92729 -9.40512 10.6292 -0.83037 3.4136 -3.42684 54.08096 131.35395 71.30233 22.46571 -5.45539 -13.94169 26.06684 -17.19211 43.49817 -98.19539 11.43395 -0.56104 43.96655 -2.89596 -9.88255 -25.21376 -6.79936 -3.5363 -2.50501 50.24786 8.0956 2.77729 -31.01089 -7.61726 2.55658 1.97788
0.13345 -0.00239 0.01698 -184.69421 -34.20248 -0.96234 31.59299 4.89548 1.06075 -9.32553 10.80888 -0.83038 3.24664 -3.52058 54.29424 131.47391 71.08306 22.48876 -5.61618 -14.20595 26.02028 -17.38975 42.91596 -98.45494 11.69536 -0.55367 44.17515 -2.77003 -10.42604 -25.30108 -6.77649 -3.53292 -2.50208 50.80067 8.39015 2.87655 -31.29904 -7.675 2.44195 1.92064
0.13515 -0.00279 0.01413 -184.22768 -34.19155 -0.8832 31.45638 4.96254 1.18026 -9.18952 10.93745 -0.83038 3.28764 -3.61647 54.37955 131.46714 70.78741 22.44496 -5.59849 -14.44721 26.02724 -17.35132 42.35169 -98.62134 11.82394 -0.5583 44.3107 -2.51533 -10.40967 -25.38385 -6.77409 -3.59168 -2.53333 51.16842 8.71134 3.12213 -31.48072 -7.72666 2.34229 1.86226
0.13662 -0.0032 0.01132 -183.80535 -34.16432 -0.81389 31.37663 5.01939 1.29391 -9.03126 11.0435 -0.83038 3.40698 -3.71255 54.41776 131.41706 70.4683 22.37588 -5.52134 -14.6706 26.05936 -17.23583 41.79928 -98.74816 11.90268 -0.56665 44.42024 -2.21977 -10.20827 -25.46462 -6.77857 -3.67066 -2.57571 51.46632 9.03359 3.39779 -31.61872 -7.77621 2.2504 1.80527
0.13818 -0.0036 0.00852 -183.365 -34.14305 -0.73873 31.27548 5.08002 1.40852 -8.88777 11.15539 -0.83038 3.49195 -3.80735 54.47724 131.38824 70.1682 22.31762 -5.47447 -14.89939 26.08091 -17.16115 41.24896 -98.8893 12.00303 -0.57278 44.53756 -1.94915 -10.10501 -25.5443 -6.77957 -3.73831 -2.61189 51.78748 9.34671 3.64344 -31.76878 -7.82629 2.15692 1.74922
0.13982 -0.00404 0.00562 -182.91489 -34.12918 -0.66967 31.15739 5.14397 1.53119 -8.72003 11.28535 -0.83038 3.57302 -3.90741 54.53728 131.35365 69.83159 22.26177 -5.41607 -15.13598 26.10201 -17.06531 40.66443 -99.04475 12.10797 -0.58093 44.67347 -1.65243 -9.94887 -25.63308 -6.78184 -3.81441 -2.65257 52.14685 9.69605 3.95412 -31.95279 -7.87857 2.05526 1.68669
0.14122 -0.0044 0.00293 -182.49631 -34.09605 -0.59039 31.08808 5.19875 1.63507 -8.59994 11.37275 -0.83038 3.68003 -3.99667 54.58476 131.32049 69.5654 22.19521 -5.36651 -15.35288 26.12874 -16.99366 40.15642 -99.16116 12.19112 -0.58589 44.76456 -1.39987 -9.85556 -25.70234 -6.78323 -3.87802 -2.68669 52.40965 9.96996 4.13668 -32.0554 -7.92555 1.97274 1.63804
0.14205 -0.00455 0.0008 -182.15036 -34.00664 -0.47742 31.13045 5.23016 1.69178 -8.60854 11.34531 -0.83038 3.8429 -4.05355 54.61154 131.30163 69.50609 22.10375 -5.35873 -15.5273 26.16559 -17.0116 39.83943 -99.18299 12.22994 -0.58062 44.72935 -1.28157 -9.99205 -25.71608 -6.77999 -3.90116 -2.69939 52.41574 10.03984 3.97589 -31.94303 -7.95912 1.93773 1.62582
0.14264 -0.00463 -0.00111 -181.83533 -33.89905 -0.35435 31.22074 5.25281 1.72901 -8.66787 11.27655 -0.83038 4.02825 -4.09991 54.62686 131.28566 69.51751 22.00289 -5.36129 -15.68156 26.20671 -17.05545 39.60272 -99.16649 12.24787 -0.57213 44.65078 -1.20864 -10.19547 -25.71049 -6.77575 -3.91127 -2.70525 52.3276 10.03327 3.68359 -31.75038 -7.98725 1.92218 1.62767
0.14333 -0.00475 -0.00311 -181.50869 -33.80469 -0.2378 31.29533 5.27993 1.77304 -8.71005 11.22839 -0.83038 4.20115 -4.15278 54.64583 131.26837 69.49236 21.9072 -5.35673 -15.84105 26.24489 -17.0843 39.34039 -99.16543 12.27298 -0.56549 44.59817 -1.11324 -10.36 -25.7151 -6.77234 -3.9281 -2.71468 52.28733 10.05847 3.4393 -31.59475 -8.01734 1.90013 1.62416
0.14404 -0.00485 -0.00517 -181.1735 -33.69051 -0.11332 31.34844 5.30477 1.82587 -8.72677 11.17106 -0.83038 4.38688 -4.19864 54.66973 131.24952 69.48488 21.80619 -5.35952 -16.01731 26.28803 -17.12382 39.03134 -99.17124 12.30614 -0.55739 44.52029 -1.02402 -10.55328 -25.71386 -6.76761 -3.9423 -2.7226 52.22488 10.09514 3.24142 -31.43484 -8.04949 1.86905 1.61668
0.14466 -0.00495 -0.00705 -180.86263 -33.6114 -0.00299 31.45422 5.33221 1.85539 -8.80851 11.12417 -0.83038 4.54938 -4.25626 54.68126 131.23531 69.4579 21.71517 -5.35124 -16.15302 26.32175 -17.14868 38.84008 -99.15426 12.31818 -0.55146 44.48257 -0.93349 -10.70582 -25.72002 -6.76526 -3.95858 -2.73184 52.18525 10.09114 2.9205 -31.26599 -8.07613 1.86055 1.62038
0.14508 -0.00504 -0.00849 -180.61373 -33.65218 0.06731 31.71689 5.37078 1.82911 -9.06022 11.10887 -0.83039 4.6489 -4.35153 54.66149 131.23205 69.35841 21.64697 -5.30122 -16.19114 26.32588 -17.12294 38.94137 -99.0829 12.27757 -0.55274 44.58838 -0.8265 -10.72296 -25.75333 -6.76997 -3.98399 -2.74664 52.24853 9.98162 2.24661 -31.0867 -8.08843 1.916 1.65508
0.14541 -0.00513 -0.00975 -180.38779 -33.72592 0.1228 32.02661 5.41196 1.77948 -9.37483 11.10685 -0.83039 4.72262 -4.45841 54.62973 131.23375 69.23724 21.59051 -5.24143 -16.18752 26.32065 -17.08245 39.1609 -98.99022 12.21658 -0.55622 44.73258 -0.71724 -10.69906 -25.79441 -6.77703 -4.01176 -2.76289 52.33558 9.8359 1.46132 -30.90236 -8.09546 1.99236 1.69993
0.14578 -0.00521 -0.01108 -180.14926 -33.77191 0.18414 32.29887 5.45083 1.73791 -9.65943 11.10384 -0.83039 4.80345 -4.55836 54.60388 131.23422 69.12707 21.53355 -5.19227 -16.19687 26.32127 -17.05185 39.33476 -98.90818 12.16478 -0.55839 44.84428 -0.6103 -10.69901 -25.83065 -6.78281 -4.03823 -2.77829 52.40055 9.71478 0.75727 -30.72412 -8.10521 2.0548 1.73772
0.14613 -0.0053 -0.01244 -179.92004 -33.86944 0.24955 32.63934 5.49421 1.70588 -9.95341 11.07862 -0.83039 4.90471 -4.66529 54.57634 131.23064 69.01458 21.4562 -5.11799 -16.2307 26.31554 -17.00947 39.47711 -98.82109 12.11247 -0.56173 45.01607 -0.49917 -10.67874 -25.87172 -6.78946 -4.06535 -2.79435 52.50826 9.55721 -0.07866 -30.52717 -8.11345 2.13619 1.78611
